<mxfile host="Electron" agent="Mozilla/5.0 (Macintosh; Intel Mac OS X 10_15_7) AppleWebKit/537.36 (KHTML, like Gecko) draw.io/25.0.2 Chrome/128.0.6613.186 Electron/32.2.5 Safari/537.36" version="25.0.2">
  <diagram name="Page-1" id="S5swBT3qI7cLgmJ0DoqJ">
    <mxGraphModel dx="2842" dy="878" grid="1" gridSize="10" guides="1" tooltips="1" connect="1" arrows="1" fold="1" page="1" pageScale="1" pageWidth="1600" pageHeight="1200" math="0" shadow="0">
      <root>
        <mxCell id="0" />
        <mxCell id="1" parent="0" />
        <mxCell id="DvwuO9mIRMrfmBE7zKXf-7" value="AWS Cloud" style="locked=1;" parent="0" />
        <mxCell id="DvwuO9mIRMrfmBE7zKXf-8" value="AWS Cloud" style="points=[[0,0],[0.25,0],[0.5,0],[0.75,0],[1,0],[1,0.25],[1,0.5],[1,0.75],[1,1],[0.75,1],[0.5,1],[0.25,1],[0,1],[0,0.75],[0,0.5],[0,0.25]];outlineConnect=0;html=1;whiteSpace=wrap;fontSize=20;fontStyle=1;container=1;pointerEvents=0;collapsible=0;recursiveResize=0;shape=mxgraph.aws4.group;grIcon=mxgraph.aws4.group_aws_cloud_alt;strokeColor=#666666;fillColor=#E6E6E6;verticalAlign=top;align=left;spacingLeft=30;fontColor=#333333;dashed=0;" parent="DvwuO9mIRMrfmBE7zKXf-7" vertex="1">
          <mxGeometry x="-80" y="80" width="1360" height="640" as="geometry" />
        </mxCell>
        <mxCell id="DvwuO9mIRMrfmBE7zKXf-1" value="Region" style="locked=1;" parent="0" />
        <mxCell id="DvwuO9mIRMrfmBE7zKXf-9" value="Region" style="points=[[0,0],[0.25,0],[0.5,0],[0.75,0],[1,0],[1,0.25],[1,0.5],[1,0.75],[1,1],[0.75,1],[0.5,1],[0.25,1],[0,1],[0,0.75],[0,0.5],[0,0.25]];outlineConnect=0;html=1;whiteSpace=wrap;fontSize=18;fontStyle=1;container=1;pointerEvents=0;collapsible=0;recursiveResize=0;shape=mxgraph.aws4.group;grIcon=mxgraph.aws4.group_region;strokeColor=#6c8ebf;fillColor=#dae8fc;verticalAlign=top;align=left;spacingLeft=30;" parent="DvwuO9mIRMrfmBE7zKXf-1" vertex="1">
          <mxGeometry x="-40" y="120" width="1280" height="560" as="geometry" />
        </mxCell>
        <mxCell id="DvwuO9mIRMrfmBE7zKXf-2" value="VPC" style="locked=1;" parent="0" />
        <mxCell id="DvwuO9mIRMrfmBE7zKXf-14" value="Consumer VPC" style="points=[[0,0],[0.25,0],[0.5,0],[0.75,0],[1,0],[1,0.25],[1,0.5],[1,0.75],[1,1],[0.75,1],[0.5,1],[0.25,1],[0,1],[0,0.75],[0,0.5],[0,0.25]];outlineConnect=0;html=1;whiteSpace=wrap;fontSize=16;fontStyle=1;container=1;pointerEvents=0;collapsible=0;recursiveResize=0;shape=mxgraph.aws4.group;grIcon=mxgraph.aws4.group_vpc2;strokeColor=#9673a6;fillColor=#e1d5e7;verticalAlign=top;align=left;spacingLeft=30;dashed=0;" parent="DvwuO9mIRMrfmBE7zKXf-2" vertex="1">
          <mxGeometry x="720" y="160" width="480" height="480" as="geometry" />
        </mxCell>
        <mxCell id="DvwuO9mIRMrfmBE7zKXf-13" value="&lt;font&gt;Provider VPC&lt;/font&gt;" style="points=[[0,0],[0.25,0],[0.5,0],[0.75,0],[1,0],[1,0.25],[1,0.5],[1,0.75],[1,1],[0.75,1],[0.5,1],[0.25,1],[0,1],[0,0.75],[0,0.5],[0,0.25]];outlineConnect=0;html=1;whiteSpace=wrap;fontSize=16;fontStyle=1;container=1;pointerEvents=0;collapsible=0;recursiveResize=0;shape=mxgraph.aws4.group;grIcon=mxgraph.aws4.group_vpc2;strokeColor=#9673a6;fillColor=#e1d5e7;verticalAlign=top;align=left;spacingLeft=30;dashed=0;" parent="DvwuO9mIRMrfmBE7zKXf-2" vertex="1">
          <mxGeometry y="160" width="560" height="480" as="geometry" />
        </mxCell>
        <mxCell id="DvwuO9mIRMrfmBE7zKXf-4" value="Subnet" style="locked=1;" parent="0" />
        <mxCell id="KrBxgo_F15wCX-UUpBdn-31" value="&lt;font&gt;&lt;b&gt;Provider Subnet&lt;/b&gt;&lt;/font&gt;" style="points=[[0,0],[0.25,0],[0.5,0],[0.75,0],[1,0],[1,0.25],[1,0.5],[1,0.75],[1,1],[0.75,1],[0.5,1],[0.25,1],[0,1],[0,0.75],[0,0.5],[0,0.25]];outlineConnect=0;html=1;whiteSpace=wrap;fontSize=14;fontStyle=0;container=1;pointerEvents=0;collapsible=0;recursiveResize=0;shape=mxgraph.aws4.group;grIcon=mxgraph.aws4.group_security_group;grStroke=0;strokeColor=#82b366;fillColor=#d5e8d4;verticalAlign=top;align=left;spacingLeft=30;fontFamily=Helvetica;labelBackgroundColor=none;perimeterSpacing=0;" parent="DvwuO9mIRMrfmBE7zKXf-4" vertex="1">
          <mxGeometry x="160" y="200" width="280" height="240" as="geometry" />
        </mxCell>
        <mxCell id="_4Ir6IMv78Q1NAsbgYbr-17" value="&lt;font&gt;&lt;b&gt;Consumer Subnet&lt;/b&gt;&lt;/font&gt;" style="points=[[0,0],[0.25,0],[0.5,0],[0.75,0],[1,0],[1,0.25],[1,0.5],[1,0.75],[1,1],[0.75,1],[0.5,1],[0.25,1],[0,1],[0,0.75],[0,0.5],[0,0.25]];outlineConnect=0;html=1;whiteSpace=wrap;fontSize=14;fontStyle=0;container=1;pointerEvents=0;collapsible=0;recursiveResize=0;shape=mxgraph.aws4.group;grIcon=mxgraph.aws4.group_security_group;grStroke=0;strokeColor=#82b366;fillColor=#d5e8d4;verticalAlign=top;align=left;spacingLeft=30;dashed=0;fontFamily=Helvetica;labelBackgroundColor=none;" parent="DvwuO9mIRMrfmBE7zKXf-4" vertex="1">
          <mxGeometry x="760" y="200" width="280" height="240" as="geometry" />
        </mxCell>
        <mxCell id="DvwuO9mIRMrfmBE7zKXf-5" value="Security Group" style="locked=1;" parent="0" />
        <mxCell id="KrBxgo_F15wCX-UUpBdn-19" value="EC2&lt;div&gt;Security Group&lt;/div&gt;" style="fillColor=#f8cecc;strokeColor=#b85450;verticalAlign=bottom;fontStyle=1;fontSize=12;labelPosition=center;verticalLabelPosition=top;align=center;spacingTop=0;spacingLeft=0;html=1;spacingBottom=0;spacingRight=0;" parent="DvwuO9mIRMrfmBE7zKXf-5" vertex="1">
          <mxGeometry x="920" y="280" width="80" height="120" as="geometry" />
        </mxCell>
        <mxCell id="_4Ir6IMv78Q1NAsbgYbr-10" value="VPCE&lt;div&gt;Security Group&lt;/div&gt;" style="fillColor=#f8cecc;strokeColor=#b85450;verticalAlign=bottom;fontStyle=1;fontSize=12;labelPosition=center;verticalLabelPosition=top;align=center;spacingTop=0;spacingLeft=0;html=1;spacingBottom=0;spacingRight=0;" parent="DvwuO9mIRMrfmBE7zKXf-5" vertex="1">
          <mxGeometry x="800" y="280" width="80" height="120" as="geometry" />
        </mxCell>
        <mxCell id="_4Ir6IMv78Q1NAsbgYbr-12" value="NLB&lt;div&gt;Security Group&lt;/div&gt;" style="fillColor=#f8cecc;strokeColor=#b85450;verticalAlign=bottom;fontStyle=1;fontSize=12;labelPosition=center;verticalLabelPosition=top;align=center;spacingTop=0;spacingLeft=0;html=1;spacingBottom=0;spacingRight=0;" parent="DvwuO9mIRMrfmBE7zKXf-5" vertex="1">
          <mxGeometry x="320" y="280" width="80" height="120" as="geometry" />
        </mxCell>
        <mxCell id="_4Ir6IMv78Q1NAsbgYbr-13" value="RDS&lt;div&gt;&lt;span style=&quot;background-color: initial;&quot;&gt;Security Group&lt;/span&gt;&lt;/div&gt;" style="fillColor=#f8cecc;strokeColor=#b85450;verticalAlign=bottom;fontStyle=1;fontSize=12;labelPosition=center;verticalLabelPosition=top;align=center;spacingTop=0;spacingLeft=0;html=1;spacingBottom=0;spacingRight=0;" parent="DvwuO9mIRMrfmBE7zKXf-5" vertex="1">
          <mxGeometry x="200" y="280" width="80" height="120" as="geometry" />
        </mxCell>
        <mxCell id="DvwuO9mIRMrfmBE7zKXf-6" value="Other" style="locked=1;" parent="0" />
        <mxCell id="_4Ir6IMv78Q1NAsbgYbr-25" style="edgeStyle=orthogonalEdgeStyle;shape=connector;rounded=0;orthogonalLoop=1;jettySize=auto;html=1;strokeColor=#009900;strokeWidth=2;align=center;verticalAlign=middle;fontFamily=Helvetica;fontSize=16;fontColor=#232F3E;fontStyle=1;labelBackgroundColor=default;startArrow=block;startFill=1;endArrow=block;endFill=1;" parent="DvwuO9mIRMrfmBE7zKXf-6" source="_4Ir6IMv78Q1NAsbgYbr-6" target="_4Ir6IMv78Q1NAsbgYbr-1" edge="1">
          <mxGeometry relative="1" as="geometry" />
        </mxCell>
        <mxCell id="_4Ir6IMv78Q1NAsbgYbr-6" value="&lt;div&gt;VPCE&lt;/div&gt;&lt;div&gt;Network&lt;/div&gt;&lt;div&gt;Interface&lt;/div&gt;" style="sketch=0;outlineConnect=0;fontColor=#232F3E;gradientColor=none;fillColor=#8C4FFF;strokeColor=none;dashed=0;verticalLabelPosition=top;verticalAlign=bottom;align=center;html=1;fontSize=12;fontStyle=0;aspect=fixed;pointerEvents=1;shape=mxgraph.aws4.elastic_network_interface;labelPosition=center;" parent="DvwuO9mIRMrfmBE7zKXf-6" vertex="1">
          <mxGeometry x="822" y="342" width="36" height="36" as="geometry" />
        </mxCell>
        <mxCell id="_4Ir6IMv78Q1NAsbgYbr-27" style="edgeStyle=orthogonalEdgeStyle;shape=connector;rounded=0;orthogonalLoop=1;jettySize=auto;html=1;strokeColor=#009900;strokeWidth=2;align=center;verticalAlign=middle;fontFamily=Helvetica;fontSize=16;fontColor=#232F3E;fontStyle=1;labelBackgroundColor=default;startArrow=block;startFill=1;endArrow=block;endFill=1;" parent="DvwuO9mIRMrfmBE7zKXf-6" source="_4Ir6IMv78Q1NAsbgYbr-7" target="_4Ir6IMv78Q1NAsbgYbr-8" edge="1">
          <mxGeometry relative="1" as="geometry" />
        </mxCell>
        <mxCell id="_4Ir6IMv78Q1NAsbgYbr-7" value="&lt;div&gt;NLB&lt;/div&gt;&lt;div&gt;Network&lt;/div&gt;&lt;div&gt;Interface&lt;/div&gt;" style="sketch=0;outlineConnect=0;fontColor=#232F3E;gradientColor=none;fillColor=#8C4FFF;strokeColor=none;dashed=0;verticalLabelPosition=top;verticalAlign=bottom;align=center;html=1;fontSize=12;fontStyle=0;aspect=fixed;pointerEvents=1;shape=mxgraph.aws4.elastic_network_interface;labelPosition=center;" parent="DvwuO9mIRMrfmBE7zKXf-6" vertex="1">
          <mxGeometry x="342" y="342" width="36" height="36" as="geometry" />
        </mxCell>
        <mxCell id="_4Ir6IMv78Q1NAsbgYbr-18" style="edgeStyle=orthogonalEdgeStyle;rounded=0;orthogonalLoop=1;jettySize=auto;html=1;fontFamily=Helvetica;fontSize=16;fontColor=#232F3E;fontStyle=1;endArrow=none;endFill=0;strokeWidth=2;strokeColor=#8C4FFF;" parent="DvwuO9mIRMrfmBE7zKXf-6" source="DvwuO9mIRMrfmBE7zKXf-27" target="DvwuO9mIRMrfmBE7zKXf-29" edge="1">
          <mxGeometry relative="1" as="geometry" />
        </mxCell>
        <mxCell id="_4Ir6IMv78Q1NAsbgYbr-19" style="edgeStyle=orthogonalEdgeStyle;shape=connector;rounded=0;orthogonalLoop=1;jettySize=auto;html=1;strokeColor=#8C4FFF;strokeWidth=2;align=center;verticalAlign=middle;fontFamily=Helvetica;fontSize=16;fontColor=#232F3E;fontStyle=1;labelBackgroundColor=default;endArrow=none;endFill=0;" parent="DvwuO9mIRMrfmBE7zKXf-6" source="DvwuO9mIRMrfmBE7zKXf-27" target="_4Ir6IMv78Q1NAsbgYbr-7" edge="1">
          <mxGeometry relative="1" as="geometry" />
        </mxCell>
        <mxCell id="DvwuO9mIRMrfmBE7zKXf-27" value="Network&amp;nbsp;&lt;span style=&quot;background-color: initial;&quot;&gt;Load&lt;/span&gt;&lt;div&gt;Balancer&amp;nbsp;&lt;span style=&quot;background-color: initial;&quot;&gt;(NLB)&lt;/span&gt;&lt;/div&gt;" style="sketch=0;outlineConnect=0;fontColor=#232F3E;gradientColor=none;fillColor=#8C4FFF;strokeColor=none;dashed=0;verticalLabelPosition=bottom;verticalAlign=top;align=center;html=1;fontSize=16;fontStyle=1;aspect=fixed;pointerEvents=1;shape=mxgraph.aws4.network_load_balancer;labelPosition=center;direction=west;" parent="DvwuO9mIRMrfmBE7zKXf-6" vertex="1">
          <mxGeometry x="320" y="480" width="80" height="80" as="geometry" />
        </mxCell>
        <mxCell id="_4Ir6IMv78Q1NAsbgYbr-23" style="edgeStyle=orthogonalEdgeStyle;shape=connector;rounded=0;orthogonalLoop=1;jettySize=auto;html=1;strokeColor=#8C4FFF;strokeWidth=2;align=center;verticalAlign=middle;fontFamily=Helvetica;fontSize=16;fontColor=#232F3E;fontStyle=1;labelBackgroundColor=default;endArrow=none;endFill=0;" parent="DvwuO9mIRMrfmBE7zKXf-6" source="DvwuO9mIRMrfmBE7zKXf-29" target="DvwuO9mIRMrfmBE7zKXf-28" edge="1">
          <mxGeometry relative="1" as="geometry" />
        </mxCell>
        <mxCell id="DvwuO9mIRMrfmBE7zKXf-29" value="Endpoint&lt;div&gt;Service&lt;/div&gt;" style="sketch=0;outlineConnect=0;fontColor=#232F3E;gradientColor=none;fillColor=#8C4FFF;strokeColor=none;dashed=0;verticalLabelPosition=bottom;verticalAlign=top;align=center;html=1;fontSize=16;fontStyle=1;aspect=fixed;pointerEvents=1;shape=mxgraph.aws4.resource;labelPosition=center;" parent="DvwuO9mIRMrfmBE7zKXf-6" vertex="1">
          <mxGeometry x="440" y="480" width="80" height="80" as="geometry" />
        </mxCell>
        <mxCell id="_4Ir6IMv78Q1NAsbgYbr-22" style="edgeStyle=orthogonalEdgeStyle;shape=connector;rounded=0;orthogonalLoop=1;jettySize=auto;html=1;strokeColor=#8C4FFF;strokeWidth=2;align=center;verticalAlign=middle;fontFamily=Helvetica;fontSize=16;fontColor=#232F3E;fontStyle=1;labelBackgroundColor=default;endArrow=none;endFill=0;" parent="DvwuO9mIRMrfmBE7zKXf-6" source="_4Ir6IMv78Q1NAsbgYbr-1" target="DvwuO9mIRMrfmBE7zKXf-24" edge="1">
          <mxGeometry relative="1" as="geometry" />
        </mxCell>
        <mxCell id="_4Ir6IMv78Q1NAsbgYbr-1" value="Elastic&lt;div&gt;Network&lt;/div&gt;&lt;div&gt;Interface&lt;/div&gt;" style="sketch=0;outlineConnect=0;fontColor=#232F3E;gradientColor=none;fillColor=#8C4FFF;strokeColor=none;dashed=0;verticalLabelPosition=top;verticalAlign=bottom;align=center;html=1;fontSize=12;fontStyle=0;aspect=fixed;pointerEvents=1;shape=mxgraph.aws4.elastic_network_interface;labelPosition=center;" parent="DvwuO9mIRMrfmBE7zKXf-6" vertex="1">
          <mxGeometry x="942" y="342" width="36" height="36" as="geometry" />
        </mxCell>
        <mxCell id="_4Ir6IMv78Q1NAsbgYbr-24" style="edgeStyle=orthogonalEdgeStyle;shape=connector;rounded=0;orthogonalLoop=1;jettySize=auto;html=1;strokeColor=#009900;strokeWidth=2;align=center;verticalAlign=middle;fontFamily=Helvetica;fontSize=16;fontColor=#232F3E;fontStyle=1;labelBackgroundColor=default;endArrow=block;endFill=1;startArrow=block;startFill=1;" parent="DvwuO9mIRMrfmBE7zKXf-6" source="DvwuO9mIRMrfmBE7zKXf-33" target="_4Ir6IMv78Q1NAsbgYbr-6" edge="1">
          <mxGeometry relative="1" as="geometry" />
        </mxCell>
        <mxCell id="_4Ir6IMv78Q1NAsbgYbr-26" style="edgeStyle=orthogonalEdgeStyle;shape=connector;rounded=0;orthogonalLoop=1;jettySize=auto;html=1;strokeColor=#009900;strokeWidth=2;align=center;verticalAlign=middle;fontFamily=Helvetica;fontSize=16;fontColor=#232F3E;fontStyle=1;labelBackgroundColor=default;startArrow=block;startFill=1;endArrow=block;endFill=1;fillColor=#cce5ff;" parent="DvwuO9mIRMrfmBE7zKXf-6" source="DvwuO9mIRMrfmBE7zKXf-33" target="_4Ir6IMv78Q1NAsbgYbr-7" edge="1">
          <mxGeometry relative="1" as="geometry" />
        </mxCell>
        <mxCell id="DvwuO9mIRMrfmBE7zKXf-33" value="PrivateLink" style="sketch=0;points=[[0,0,0],[0.25,0,0],[0.5,0,0],[0.75,0,0],[1,0,0],[0,1,0],[0.25,1,0],[0.5,1,0],[0.75,1,0],[1,1,0],[0,0.25,0],[0,0.5,0],[0,0.75,0],[1,0.25,0],[1,0.5,0],[1,0.75,0]];outlineConnect=0;fontColor=#232F3E;fillColor=#8C4FFF;strokeColor=#ffffff;dashed=0;verticalLabelPosition=bottom;verticalAlign=top;align=center;html=1;fontSize=16;fontStyle=1;aspect=fixed;shape=mxgraph.aws4.resourceIcon;resIcon=mxgraph.aws4.vpc_privatelink;fontFamily=Helvetica;labelBackgroundColor=none;" parent="DvwuO9mIRMrfmBE7zKXf-6" vertex="1">
          <mxGeometry x="600" y="320" width="80" height="80" as="geometry" />
        </mxCell>
        <mxCell id="_4Ir6IMv78Q1NAsbgYbr-28" style="edgeStyle=orthogonalEdgeStyle;shape=connector;rounded=0;orthogonalLoop=1;jettySize=auto;html=1;strokeColor=#8C4FFF;strokeWidth=2;align=center;verticalAlign=middle;fontFamily=Helvetica;fontSize=16;fontColor=#232F3E;fontStyle=1;labelBackgroundColor=default;endArrow=none;endFill=0;" parent="DvwuO9mIRMrfmBE7zKXf-6" source="DvwuO9mIRMrfmBE7zKXf-28" target="_4Ir6IMv78Q1NAsbgYbr-6" edge="1">
          <mxGeometry relative="1" as="geometry" />
        </mxCell>
        <mxCell id="DvwuO9mIRMrfmBE7zKXf-28" value="VPC Interface&lt;div&gt;Endpoint&amp;nbsp;&lt;span style=&quot;background-color: initial;&quot;&gt;(VPCE)&lt;/span&gt;&lt;/div&gt;" style="sketch=0;outlineConnect=0;fontColor=#232F3E;gradientColor=none;fillColor=#8C4FFF;strokeColor=none;dashed=0;verticalLabelPosition=bottom;verticalAlign=top;align=center;html=1;fontSize=16;fontStyle=1;aspect=fixed;pointerEvents=1;shape=mxgraph.aws4.endpoints;flipH=1;labelPosition=center;direction=east;" parent="DvwuO9mIRMrfmBE7zKXf-6" vertex="1">
          <mxGeometry x="800" y="480" width="80" height="80" as="geometry" />
        </mxCell>
        <mxCell id="_4Ir6IMv78Q1NAsbgYbr-8" value="&lt;div&gt;RDS&lt;/div&gt;&lt;div&gt;Network&lt;/div&gt;&lt;div&gt;Interface&lt;/div&gt;" style="sketch=0;outlineConnect=0;fontColor=#232F3E;gradientColor=none;fillColor=#8C4FFF;strokeColor=none;dashed=0;verticalLabelPosition=top;verticalAlign=bottom;align=center;html=1;fontSize=12;fontStyle=0;aspect=fixed;pointerEvents=1;shape=mxgraph.aws4.elastic_network_interface;labelPosition=center;" parent="DvwuO9mIRMrfmBE7zKXf-6" vertex="1">
          <mxGeometry x="220" y="342" width="36" height="36" as="geometry" />
        </mxCell>
        <mxCell id="DvwuO9mIRMrfmBE7zKXf-24" value="&lt;div&gt;EC2 Instance&lt;/div&gt;" style="sketch=0;outlineConnect=0;fontColor=#232F3E;gradientColor=none;fillColor=#ED7100;strokeColor=none;dashed=0;verticalLabelPosition=bottom;verticalAlign=top;align=center;html=1;fontSize=16;fontStyle=1;aspect=fixed;pointerEvents=1;shape=mxgraph.aws4.db_on_instance2;labelPosition=center;" parent="DvwuO9mIRMrfmBE7zKXf-6" vertex="1">
          <mxGeometry x="1080" y="320" width="80" height="80" as="geometry" />
        </mxCell>
        <mxCell id="_4Ir6IMv78Q1NAsbgYbr-20" style="edgeStyle=orthogonalEdgeStyle;shape=connector;rounded=0;orthogonalLoop=1;jettySize=auto;html=1;strokeColor=#8C4FFF;strokeWidth=2;align=center;verticalAlign=middle;fontFamily=Helvetica;fontSize=16;fontColor=#232F3E;fontStyle=1;labelBackgroundColor=default;endArrow=none;endFill=0;" parent="DvwuO9mIRMrfmBE7zKXf-6" source="_4Ir6IMv78Q1NAsbgYbr-5" target="_4Ir6IMv78Q1NAsbgYbr-8" edge="1">
          <mxGeometry relative="1" as="geometry" />
        </mxCell>
        <mxCell id="_4Ir6IMv78Q1NAsbgYbr-5" value="RDS Instance" style="sketch=0;outlineConnect=0;fontColor=#232F3E;gradientColor=none;fillColor=#ED7100;strokeColor=none;dashed=0;verticalLabelPosition=bottom;verticalAlign=top;align=center;html=1;fontSize=16;fontStyle=1;aspect=fixed;pointerEvents=1;shape=mxgraph.aws4.rds_mariadb_instance;fontFamily=Helvetica;" parent="DvwuO9mIRMrfmBE7zKXf-6" vertex="1">
          <mxGeometry x="40" y="320" width="80" height="80" as="geometry" />
        </mxCell>
        <mxCell id="_4Ir6IMv78Q1NAsbgYbr-29" value="Legend" style="swimlane;fontStyle=1;childLayout=stackLayout;horizontal=1;startSize=26;fillColor=#EEE2F5;horizontalStack=0;resizeParent=1;resizeParentMax=0;resizeLast=0;collapsible=1;marginBottom=0;html=1;dashed=0;sketch=0;pointerEvents=1;align=center;verticalAlign=bottom;fontFamily=Helvetica;fontSize=16;fontColor=#232F3E;labelBackgroundColor=none;" parent="DvwuO9mIRMrfmBE7zKXf-6" vertex="1">
          <mxGeometry x="70" y="522" width="170" height="78" as="geometry">
            <mxRectangle x="60" y="480" width="90" height="30" as="alternateBounds" />
          </mxGeometry>
        </mxCell>
        <mxCell id="_4Ir6IMv78Q1NAsbgYbr-30" value="&lt;font style=&quot;font-size: 14px;&quot;&gt;Network Traffic&lt;/font&gt;" style="text;strokeColor=none;fillColor=#EEE2F5;align=left;verticalAlign=top;spacingLeft=4;spacingRight=4;overflow=hidden;rotatable=0;points=[[0,0.5],[1,0.5]];portConstraint=eastwest;whiteSpace=wrap;html=1;fontFamily=Helvetica;fontSize=16;fontColor=#009900;fontStyle=1;labelBackgroundColor=none;" parent="_4Ir6IMv78Q1NAsbgYbr-29" vertex="1">
          <mxGeometry y="26" width="170" height="26" as="geometry" />
        </mxCell>
        <mxCell id="_4Ir6IMv78Q1NAsbgYbr-31" value="&lt;font color=&quot;#8c4fff&quot;&gt;Resource Attachments&lt;/font&gt;" style="text;strokeColor=none;fillColor=#EEE2F5;align=left;verticalAlign=top;spacingLeft=4;spacingRight=4;overflow=hidden;rotatable=0;points=[[0,0.5],[1,0.5]];portConstraint=eastwest;whiteSpace=wrap;html=1;fontFamily=Helvetica;fontSize=14;fontColor=#232F3E;fontStyle=1;labelBackgroundColor=none;" parent="_4Ir6IMv78Q1NAsbgYbr-29" vertex="1">
          <mxGeometry y="52" width="170" height="26" as="geometry" />
        </mxCell>
      </root>
    </mxGraphModel>
  </diagram>
</mxfile>
